{
    "asset" : {
        "generator" : "Khronos glTF Blender I/O v0.9.36",
        "version" : "2.0"
    },
    "scene" : 0,
    "scenes" : [
        {
            "name" : "Scene",
            "nodes" : [
                0
            ]
        }
    ],
    "nodes" : [
        {
            "mesh" : 0,
            "name" : "Cube"
        }
    ],
    "materials" : [
        {
            "doubleSided" : true,
            "name" : "carton_001",
            "pbrMetallicRoughness" : {
                "baseColorFactor" : [
                    0.5972022414207458,
                    0.2874408960342407,
                    0.10946176201105118,
                    1
                ],
                "metallicFactor" : 0,
                "roughnessFactor" : 0.5
            }
        },
        {
            "doubleSided" : true,
            "name" : "carton_002",
            "pbrMetallicRoughness" : {
                "baseColorFactor" : [
                    0.33716368675231934,
                    0.09530746936798096,
                    0.016807381063699722,
                    1
                ],
                "metallicFactor" : 0,
                "roughnessFactor" : 0.5
            }
        }
    ],
    "meshes" : [
        {
            "name" : "Cube.001",
            "primitives" : [
                {
                    "attributes" : {
                        "POSITION" : 0,
                        "NORMAL" : 1,
                        "TEXCOORD_0" : 2
                    },
                    "indices" : 3,
                    "material" : 0
                },
                {
                    "attributes" : {
                        "POSITION" : 4,
                        "NORMAL" : 5,
                        "TEXCOORD_0" : 6
                    },
                    "indices" : 7,
                    "material" : 1
                }
            ]
        }
    ],
    "accessors" : [
        {
            "bufferView" : 0,
            "componentType" : 5126,
            "count" : 195,
            "max" : [
                5,
                1,
                1
            ],
            "min" : [
                -1,
                -1,
                -1
            ],
            "type" : "VEC3"
        },
        {
            "bufferView" : 1,
            "componentType" : 5126,
            "count" : 195,
            "type" : "VEC3"
        },
        {
            "bufferView" : 2,
            "componentType" : 5126,
            "count" : 195,
            "type" : "VEC2"
        },
        {
            "bufferView" : 3,
            "componentType" : 5123,
            "count" : 408,
            "type" : "SCALAR"
        },
        {
            "bufferView" : 4,
            "componentType" : 5126,
            "count" : 40,
            "max" : [
                5,
                1,
                0.20000001788139343
            ],
            "min" : [
                -1,
                -1,
                -0.20000001788139343
            ],
            "type" : "VEC3"
        },
        {
            "bufferView" : 5,
            "componentType" : 5126,
            "count" : 40,
            "type" : "VEC3"
        },
        {
            "bufferView" : 6,
            "componentType" : 5126,
            "count" : 40,
            "type" : "VEC2"
        },
        {
            "bufferView" : 7,
            "componentType" : 5123,
            "count" : 60,
            "type" : "SCALAR"
        }
    ],
    "bufferViews" : [
        {
            "buffer" : 0,
            "byteLength" : 2340,
            "byteOffset" : 0
        },
        {
            "buffer" : 0,
            "byteLength" : 2340,
            "byteOffset" : 2340
        },
        {
            "buffer" : 0,
            "byteLength" : 1560,
            "byteOffset" : 4680
        },
        {
            "buffer" : 0,
            "byteLength" : 816,
            "byteOffset" : 6240
        },
        {
            "buffer" : 0,
            "byteLength" : 480,
            "byteOffset" : 7056
        },
        {
            "buffer" : 0,
            "byteLength" : 480,
            "byteOffset" : 7536
        },
        {
            "buffer" : 0,
            "byteLength" : 320,
            "byteOffset" : 8016
        },
        {
            "buffer" : 0,
            "byteLength" : 120,
            "byteOffset" : 8336
        }
    ],
    "buffers" : [
        {
            "byteLength" : 8456,
            "uri" : "data:application/octet-stream;base64,"
        }
    ]
}
