{
    "asset" : {
        "generator" : "Khronos glTF Blender I/O v0.9.36",
        "version" : "2.0"
    },
    "scene" : 0,
    "scenes" : [
        {
            "name" : "Scene",
            "nodes" : [
                0,
                1,
                2,
                3,
                4
            ]
        }
    ],
    "nodes" : [
        {
            "mesh" : 0,
            "name" : "Cone",
            "scale" : [
                0.5662481784820557,
                2.6932451725006104,
                0.5627572536468506
            ],
            "translation" : [
                0.0075085340067744255,
                0.0375426709651947,
                0
            ]
        },
        {
            "mesh" : 1,
            "name" : "Cone.001",
            "rotation" : [
                0,
                0.09070977568626404,
                0,
                0.9958773851394653
            ],
            "scale" : [
                0.4976484477519989,
                1.959782600402832,
                0.4131578803062439
            ],
            "translation" : [
                0.5706769824028015,
                -0.6966608166694641,
                -0.34848883748054504
            ]
        },
        {
            "mesh" : 2,
            "name" : "Cone.002",
            "rotation" : [
                0,
                0.3830701410770416,
                0,
                0.9237192273139954
            ],
            "scale" : [
                0.6346015334129333,
                2.5192065238952637,
                0.5663397312164307
            ],
            "translation" : [
                -0.3689539432525635,
                -0.1426621526479721,
                -0.5715088844299316
            ]
        },
        {
            "mesh" : 3,
            "name" : "Cone.003",
            "rotation" : [
                -0.002054775133728981,
                -0.5705589056015015,
                0.002308164956048131,
                -0.821250855922699
            ],
            "scale" : [
                0.4028190076351166,
                2.5857608318328857,
                0.8150857090950012
            ],
            "translation" : [
                0.5185916423797607,
                -0.06767573952674866,
                0.4984639883041382
            ]
        },
        {
            "mesh" : 4,
            "name" : "Cone.004",
            "rotation" : [
                0,
                0.9294859766960144,
                0,
                0.3688575029373169
            ],
            "scale" : [
                0.4976484477519989,
                1.959782600402832,
                0.4131578803062439
            ],
            "translation" : [
                -0.540585994720459,
                -0.6966608166694641,
                0.6426376700401306
            ]
        }
    ],
    "materials" : [
        {
            "doubleSided" : true,
            "name" : "grass_001",
            "pbrMetallicRoughness" : {
                "baseColorFactor" : [
                    0.20863687992095947,
                    0.5775805115699768,
                    0.08021987974643707,
                    1
                ],
                "metallicFactor" : 0,
                "roughnessFactor" : 0.5
            }
        }
    ],
    "meshes" : [
        {
            "name" : "Cone",
            "primitives" : [
                {
                    "attributes" : {
                        "POSITION" : 0,
                        "NORMAL" : 1,
                        "TEXCOORD_0" : 2
                    },
                    "indices" : 3,
                    "material" : 0
                }
            ]
        },
        {
            "name" : "Cone.001",
            "primitives" : [
                {
                    "attributes" : {
                        "POSITION" : 4,
                        "NORMAL" : 5,
                        "TEXCOORD_0" : 6
                    },
                    "indices" : 3,
                    "material" : 0
                }
            ]
        },
        {
            "name" : "Cone.002",
            "primitives" : [
                {
                    "attributes" : {
                        "POSITION" : 7,
                        "NORMAL" : 8,
                        "TEXCOORD_0" : 9
                    },
                    "indices" : 3,
                    "material" : 0
                }
            ]
        },
        {
            "name" : "Cone.003",
            "primitives" : [
                {
                    "attributes" : {
                        "POSITION" : 10,
                        "NORMAL" : 11,
                        "TEXCOORD_0" : 12
                    },
                    "indices" : 3,
                    "material" : 0
                }
            ]
        },
        {
            "name" : "Cone.004",
            "primitives" : [
                {
                    "attributes" : {
                        "POSITION" : 13,
                        "NORMAL" : 14,
                        "TEXCOORD_0" : 15
                    },
                    "indices" : 3,
                    "material" : 0
                }
            ]
        }
    ],
    "accessors" : [
        {
            "bufferView" : 0,
            "componentType" : 5126,
            "count" : 12,
            "max" : [
                0.8660253882408142,
                0.9605534672737122,
                0.7847128510475159
            ],
            "min" : [
                -0.866025447845459,
                -1,
                -1
            ],
            "type" : "VEC3"
        },
        {
            "bufferView" : 1,
            "componentType" : 5126,
            "count" : 12,
            "type" : "VEC3"
        },
        {
            "bufferView" : 2,
            "componentType" : 5126,
            "count" : 12,
            "type" : "VEC2"
        },
        {
            "bufferView" : 3,
            "componentType" : 5123,
            "count" : 12,
            "type" : "SCALAR"
        },
        {
            "bufferView" : 4,
            "componentType" : 5126,
            "count" : 12,
            "max" : [
                1.129655361175537,
                0.9605534672737122,
                1.0346604585647583
            ],
            "min" : [
                -0.866025447845459,
                -1,
                -1
            ],
            "type" : "VEC3"
        },
        {
            "bufferView" : 5,
            "componentType" : 5126,
            "count" : 12,
            "type" : "VEC3"
        },
        {
            "bufferView" : 6,
            "componentType" : 5126,
            "count" : 12,
            "type" : "VEC2"
        },
        {
            "bufferView" : 7,
            "componentType" : 5126,
            "count" : 12,
            "max" : [
                0.9988900423049927,
                0.9605534672737122,
                0.5000000596046448
            ],
            "min" : [
                -0.866025447845459,
                -1,
                -1
            ],
            "type" : "VEC3"
        },
        {
            "bufferView" : 8,
            "componentType" : 5126,
            "count" : 12,
            "type" : "VEC3"
        },
        {
            "bufferView" : 9,
            "componentType" : 5126,
            "count" : 12,
            "type" : "VEC2"
        },
        {
            "bufferView" : 10,
            "componentType" : 5126,
            "count" : 12,
            "max" : [
                0.8660253882408142,
                0.9617953300476074,
                1.3401480913162231
            ],
            "min" : [
                -0.866025447845459,
                -1,
                -1
            ],
            "type" : "VEC3"
        },
        {
            "bufferView" : 11,
            "componentType" : 5126,
            "count" : 12,
            "type" : "VEC3"
        },
        {
            "bufferView" : 12,
            "componentType" : 5126,
            "count" : 12,
            "type" : "VEC2"
        },
        {
            "bufferView" : 13,
            "componentType" : 5126,
            "count" : 12,
            "max" : [
                1.5554906129837036,
                0.9605534672737122,
                0.55147385597229
            ],
            "min" : [
                -0.866025447845459,
                -1,
                -1
            ],
            "type" : "VEC3"
        },
        {
            "bufferView" : 14,
            "componentType" : 5126,
            "count" : 12,
            "type" : "VEC3"
        },
        {
            "bufferView" : 15,
            "componentType" : 5126,
            "count" : 12,
            "type" : "VEC2"
        }
    ],
    "bufferViews" : [
        {
            "buffer" : 0,
            "byteLength" : 144,
            "byteOffset" : 0
        },
        {
            "buffer" : 0,
            "byteLength" : 144,
            "byteOffset" : 144
        },
        {
            "buffer" : 0,
            "byteLength" : 96,
            "byteOffset" : 288
        },
        {
            "buffer" : 0,
            "byteLength" : 24,
            "byteOffset" : 384
        },
        {
            "buffer" : 0,
            "byteLength" : 144,
            "byteOffset" : 408
        },
        {
            "buffer" : 0,
            "byteLength" : 144,
            "byteOffset" : 552
        },
        {
            "buffer" : 0,
            "byteLength" : 96,
            "byteOffset" : 696
        },
        {
            "buffer" : 0,
            "byteLength" : 144,
            "byteOffset" : 792
        },
        {
            "buffer" : 0,
            "byteLength" : 144,
            "byteOffset" : 936
        },
        {
            "buffer" : 0,
            "byteLength" : 96,
            "byteOffset" : 1080
        },
        {
            "buffer" : 0,
            "byteLength" : 144,
            "byteOffset" : 1176
        },
        {
            "buffer" : 0,
            "byteLength" : 144,
            "byteOffset" : 1320
        },
        {
            "buffer" : 0,
            "byteLength" : 96,
            "byteOffset" : 1464
        },
        {
            "buffer" : 0,
            "byteLength" : 144,
            "byteOffset" : 1560
        },
        {
            "buffer" : 0,
            "byteLength" : 144,
            "byteOffset" : 1704
        },
        {
            "buffer" : 0,
            "byteLength" : 96,
            "byteOffset" : 1848
        }
    ],
    "buffers" : [
        {
            "byteLength" : 1944,
            "uri" : "data:application/octet-stream;base64,"
        }
    ]
}
